<?xml version="1.0" encoding="UTF-8"?>
<svg id="UU_logo" data-name="UU logo" xmlns="http://www.w3.org/2000/svg" xmlns:xlink="http://www.w3.org/1999/xlink" viewBox="0 0 501.73 127.56">
  <defs>
    <clipPath id="clippath">
      <path d="m72.29,90.72c14.87,0,26.93-12.06,26.93-26.93s-12.06-26.93-26.93-26.93-26.93,12.06-26.93,26.93,12.06,26.93,26.93,26.93Z" style="fill: none;"/>
    </clipPath>
  </defs>
  <g>
    <rect x="272.13" y="0" width="229.61" height="127.56" style="fill: none;"/>
    <g>
      <rect y="0" width="272.13" height="127.56" style="fill: none;"/>
      <g>
        <g>
          <polygon points="68.1 37.76 68.61 37.1 69.47 37 70.13 37.51 74.45 37.51 75.1 37 75.97 37.1 76.48 37.76 80.67 38.79 81.43 38.45 82.25 38.76 82.59 39.52 86.41 41.52 87.23 41.37 87.94 41.87 88.09 42.69 91.33 45.55 92.16 45.6 92.73 46.25 92.68 47.08 95.13 50.63 95.93 50.88 96.33 51.65 96.09 52.45 97.62 56.49 98.33 56.92 98.54 57.76 98.11 58.47 98.63 62.76 99.22 63.35 99.22 64.22 98.63 64.81 98.11 69.09 98.54 69.8 98.33 70.65 97.62 71.08 96.09 75.12 96.34 75.91 95.93 76.69 95.14 76.93 92.68 80.49 92.73 81.32 92.16 81.97 91.33 82.02 88.1 84.88 87.95 85.7 87.23 86.2 86.41 86.04 82.59 88.05 82.25 88.81 81.43 89.12 80.67 88.78 76.48 89.81 75.97 90.47 75.11 90.57 74.45 90.06 70.13 90.06 69.48 90.57 68.61 90.47 68.1 89.81 63.9 88.78 63.15 89.12 62.33 88.81 61.99 88.05 58.17 86.05 57.35 86.2 56.63 85.7 56.48 84.88 53.25 82.02 52.42 81.97 51.84 81.32 51.89 80.49 49.44 76.94 48.65 76.69 48.24 75.92 48.49 75.12 46.96 71.08 46.24 70.66 46.04 69.81 46.47 69.1 45.94 64.81 45.36 64.22 45.36 63.35 45.94 62.76 46.46 58.48 46.03 57.77 46.24 56.92 46.95 56.49 48.49 52.45 48.24 51.66 48.64 50.88 49.44 50.64 51.89 47.08 51.84 46.25 52.42 45.6 53.25 45.55 56.48 42.69 56.63 41.87 57.35 41.37 58.16 41.53 61.99 39.52 62.33 38.76 63.15 38.45 63.9 38.79 68.1 37.76" style="fill: #ffd400;"/>
          <g style="clip-path: url(#clippath); fill: none;">
            <path d="m75.14,36.77l-2.86,16.24-2.86-16.24m6.55.1l-1.11,16.45,6.66-15.08m.78.3l-5.02,15.71,10.07-13.05m.69.48l-8.63,14.05,12.9-10.26m.56.63l-11.74,11.58,14.98-6.88m.39.75l-14.17,8.43,16.19-3.09m.2.82l-15.77,4.79,16.46.88m0,.84l-16.46.88,15.77,4.79m-.2.81l-16.19-3.09,14.17,8.43m-.39.75l-14.98-6.88,11.74,11.57m-.56.63l-12.9-10.26,8.63,14.05m-.69.48l-10.07-13.05,5.02,15.71m-7.17,1.76l-2.86-16.24-2.86,16.24m-.84-.1l1.11-16.45-6.66,15.08m-.78-.29l5.02-15.71-10.07,13.05m-.69-.48l8.63-14.05-12.91,10.26m-.55-.63l11.74-11.57-14.99,6.88m-.39-.75l14.17-8.43-16.19,3.09m-.2-.81l15.77-4.79-16.46-.88m0-.84l16.46-.88-15.77-4.79m.2-.82l16.19,3.09-14.17-8.43m.39-.75l14.99,6.88-11.74-11.58m.55-.63l12.91,10.26-8.63-14.05m.69-.48l10.07,13.05-5.02-15.71m.78-.3l6.66,15.08-1.11-16.45m12.93,52.45l-6.66-15.08,1.11,16.45" style="fill: #231f20;"/>
            <path d="m90.13,43.41l-2.04,2.35c.42.37.83.75,1.22,1.14l-.61.6c-.6-.6-1.22-1.17-1.88-1.7l2.51-3.07m8.1,10.95l-3.7,1.48c.12.28.23.58.33.86l3.75-1.33m1.48,6.87l-3.07-.62h0s2.84-1.3,2.84-1.3l-.18-1.04-3.71,1.93c.05.36.09.72.13,1.08l4.05.95m-1.22,9.37l-.95-.3c-.1.31-.2.61-.31.92l-2.81-1.01c-.1.28-.21.58-.32.86l2.76,1.12c-.12.31-.25.61-.38.91l.92.41m-2.14,3.89l-3.32-2.21c-.16.25-.35.52-.52.76l3.22,2.33m-2.89,3.39l-.7-.71c-.23.23-.46.45-.7.67l-2.02-2.2c-.22.2-.46.42-.69.61l1.93,2.27c-.25.21-.51.42-.76.63l.62.78m-3.7,2.46l-1.92-3.5c-.26.15-.54.29-.81.43l1.78,3.57m-7.58,2.47l-.16-.99c.52-.09,1.04-.19,1.62-.33l-.16-.65c-.52.12-.98.21-1.44.29l-.13-.76c.44-.08.88-.17,1.38-.28l-.17-.66c-.53.12-1.01.22-1.49.3l-.14-.84c.78-.13,1.55-.3,2.32-.52l.29,1.01c.41-.12.83-.24,1.23-.38l.2-.78.6,1.35-.78,2.5m-.64-.6l.42-1.59c-.28.09-.57.17-.84.25l.37,1.35h.05Zm-12.99,1.06l.88-3.89c-.3-.07-.61-.14-.9-.22l-1.03,3.85m-4.5-1.64l1.7-3.6c-.77-.36-1.51-.76-2.24-1.2l-.44.73c.48.29.96.56,1.46.82l-1.43,2.78m-4.58-3l2.5-3.08c-.66-.53-1.29-1.1-1.88-1.7l-.61.6c.39.4.8.78,1.22,1.14l-2.05,2.34m-5.02-5.83l3-.88h0s-1.91,2.47-1.91,2.47l.65.83,2.38-3.43c-.21-.29-.42-.59-.62-.89l-4.03,1.04m-3.29-8.88l.98-.18c-.06-.32-.11-.64-.15-.95l2.95-.42c-.04-.3-.08-.62-.11-.91l-2.96.3c-.03-.33-.06-.66-.08-.99l-.99.06m-.05-3.36l4.01.23c.02-.31.04-.61.07-.92l-1.49-.15s0-.1.02-.15c.05-.27.37-.47.72-.6.28-.11.9-.27.9-.27.05-.35.1-.68.19-1.03,0,0-1.05.36-1.43.58-.24.14-.37.21-.52.38h-.02c-.01-.62-.37-1-.95-1.04-.7-.05-1.07.58-1.17,1.35h-.17m1.4-.34c.39.04.44.41.41.65-.02.14-.03.3-.05.43l-.95-.1c.02-.16.02-.3.04-.45.04-.4.24-.57.56-.53Zm.02-5.56l3.26,2.88c.09-.33.19-.66.3-.98l-.71-.57c.15-.43.31-.85.48-1.27l.91.04c.14-.32.29-.65.44-.97l-4.3-.12m.62.84l1.56.13c-.11.28-.22.56-.32.84l-1.25-.96h0Zm5.13-9.62l2.85,2.78c.19-.2.39-.39.59-.59l-1.77-1.85,2.81.93c.26-.22.53-.44.8-.64l-2.37-3.19-.79.62,1.68,2.06-2.91-.97m22.71-3.02c.34.21.72.4,1.11.5.83.2,1.66.03,1.89-.89.13-.53-.04-.97-.94-1.43-.41-.2-.49-.35-.45-.51.06-.24.27-.36.74-.25.2.05.53.2.75.35l.44-.62c-.35-.24-.71-.43-1.13-.54-.71-.17-1.61,0-1.81.81-.18.73.21,1.06.62,1.3.41.24.84.38.75.72-.09.35-.42.33-.72.26-.27-.06-.62-.25-.83-.37l-.42.67Zm5.55-.3c-.52.99-.27,2.17.9,2.78,1.16.61,2.27.15,2.79-.84.52-.99.27-2.16-.89-2.77-1.16-.61-2.27-.15-2.79.84Zm.92.48c.39-.75.99-.88,1.5-.61.51.27.75.83.35,1.58-.39.75-.99.88-1.5.61-.51-.27-.74-.83-.35-1.58Zm12.46,24.08c-.17.36-.31.76-.36,1.16-.1.85.17,1.65,1.11,1.77.54.06.96-.15,1.3-1.11.15-.44.29-.53.45-.51.24.03.39.23.34.7-.02.21-.13.55-.26.79l.68.37c.2-.38.34-.76.39-1.19.09-.72-.2-1.6-1.02-1.7-.74-.09-1.03.34-1.22.77-.19.43-.27.88-.63.84-.36-.04-.38-.38-.34-.69.03-.27.17-.64.27-.87l-.72-.34Zm-44.32,8.04c-.02-.4-.08-.82-.23-1.2-.31-.8-.92-1.38-1.81-1.05-.51.19-.78.58-.64,1.58.07.45-.01.6-.16.66-.23.09-.45-.02-.62-.46-.07-.2-.14-.55-.14-.82h-.77c0,.41.05.82.2,1.22.26.68.92,1.32,1.69,1.03.7-.27.75-.78.72-1.25-.04-.47-.17-.9.17-1.03.34-.13.51.16.62.45.1.25.15.65.16.89l.79-.04Zm7.7-30.66c.52.99,1.63,1.45,2.79.84,1.16-.61,1.41-1.78.89-2.77-.52-.99-1.63-1.45-2.79-.84-1.16.61-1.42,1.78-.9,2.77Zm.92-.48c-.39-.75-.16-1.31.35-1.58.51-.27,1.11-.14,1.5.61.39.75.16,1.31-.35,1.58-.51.27-1.11.14-1.5-.61Zm5.69-.51c.4.03.83.02,1.22-.08.83-.21,1.49-.74,1.26-1.67-.13-.53-.49-.85-1.5-.82-.46.01-.6-.09-.63-.24-.06-.24.07-.45.54-.56.2-.05.56-.07.83-.04l.1-.76c-.42-.05-.83-.05-1.25.05-.71.18-1.43.75-1.23,1.56.18.72.68.84,1.15.86.47.02.92-.06,1,.29.09.35-.22.49-.52.57-.27.07-.66.07-.91.05l-.06.79Zm6.86-1.85c.54,0,.97-.43.97-.97s-.44-.97-.97-.97-.97.44-.97.97.44.97.97.97Zm19.76,10.37c.3.44.91.55,1.35.25.44-.3.55-.91.25-1.35-.3-.44-.91-.55-1.35-.25-.44.3-.55.91-.25,1.35Zm-20.73,38.61c0,.54.44.97.97.97s.97-.43.97-.97-.44-.97-.97-.97-.97.44-.97.97Zm-18.79-38.61c.31-.44.19-1.05-.25-1.35-.44-.3-1.05-.2-1.35.25-.3.44-.19,1.05.25,1.35.44.31,1.05.2,1.35-.25Z" style="fill: #fff;"/>
          </g>
          <g>
            <path d="m75.98,67.48c-.3.31-.73.5-1.19.5h-.98c-.55,0-1.04.27-1.34.68h-.36c-.3-.41-.79-.68-1.34-.68h-.98c-.92,0-1.67-.75-1.67-1.67v-6.7" style="fill: #ed1a3b;"/>
            <path d="m68.12,59.62h8.34v6.7c0,.46-.18.87-.48,1.17" style="fill: #fff;"/>
            <path d="m76.89,66.29c0,1.16-.94,2.1-2.1,2.1h-.98c-.51,0-.96.31-1.14.76h-.75c-.19-.45-.63-.76-1.14-.76h-.98c-1.16,0-2.1-.94-2.1-2.1v-7.11h9.21v7.11Zm-.86-6.25h-7.49v6.25c0,.68.56,1.24,1.24,1.24h.98c.6,0,1.13.25,1.51.65h.03c.38-.4.91-.65,1.51-.65h.98c.69,0,1.24-.56,1.24-1.24v-6.25Z" style="fill: #231f20;"/>
          </g>
        </g>
        <g>
          <path d="m117.5,48.2h5.49v.82h-.15c-1.69,0-1.95.74-1.95,1.76v5.27c0,4.72-3.43,5.61-5.95,5.61-3.81,0-6.22-1.65-6.22-4.89v-6.31c0-1.06-.29-1.44-1.48-1.44h-.36v-.82h6.63v.82h-.36c-.89,0-1.5.4-1.5,1.44v6.31c0,2.58,1.9,3.47,3.83,3.47,2.78,0,4.15-1.56,4.15-3.89v-5.14c0-1.5-.43-2.18-1.74-2.18h-.38v-.82Zm8.85,10.82c0,.78.36,1.12.97,1.12.51,0,.99-.32,1.61-1.06l.3.59c-.64,1.14-1.91,1.93-3.07,1.93-1.44,0-2.4-.81-2.4-2.62v-5.08h-1.12v-.56c1.27-.53,2.71-2.07,3.09-3.26h.62v2.65h2.77l-.32,1.17h-2.45v5.12Zm9.74,2.35h-5.89v-.68h.15c.87,0,1.18-.38,1.18-1.48v-3.45c0-.95-.13-1.17-.76-1.42l-.57-.24v-.53l3.47-1.31h.45v2.37h.04c.78-1.52,1.12-2.14,1.84-2.14.15,0,.32.02.42.06l1.67.62c-.25.89-.59,1.65-1.01,2.24-.66-.25-1.44-.53-1.72-.53-.42,0-.78.3-1.25.95v3.43c0,1.02.32,1.42,1.42,1.42h.55v.68Zm11.22-2.45c-1.18,1.67-2.9,2.69-4.53,2.69-2.31,0-3.87-1.78-3.87-4.34,0-2.79,1.89-4.76,4.53-4.76,1.13,0,2.01.36,2.67,1.02,1.25,1.25.66,2.43,1.4,2.81v.61h-5.86c.17,1.76,1.35,3.09,2.6,3.09.78,0,1.54-.44,2.58-1.53l.48.4Zm-2.73-2.79c-.02-1.63-.59-2.62-1.51-2.62-.87,0-1.65,1.12-1.5,2.62h3.01Zm12.95,3.21c-.97,1.48-2.46,2.26-4.32,2.26-2.58,0-4.45-1.76-4.45-4.19,0-2.77,2.39-4.91,5.48-4.91,1.82,0,3.2.76,3.2,1.8,0,.63-.42,1.06-1.08,1.06-1.48,0-1.79-1.89-3.02-1.89-1.06,0-1.78,1.29-1.78,3.19,0,2.29,1.08,3.83,2.65,3.83.96,0,1.84-.48,2.71-1.5l.61.34Zm4.59-.1c0,1.33.36,1.46,1.1,1.46h.21v.68h-5.36v-.68h.3c1.08,0,1.16-.42,1.16-1.55v-9.25c0-.61-.11-.76-.68-.95l-.61-.21v-.49l3.37-1.04h.51v6.9c1.19-.82,2.71-1.61,3.81-1.61,1.55,0,2.31,1.25,2.31,3.74v2.8c0,1.25.15,1.65.95,1.65h.21v.68h-4.99v-.68h.17c.89,0,1.08-.34,1.08-1.55v-3.2c0-1.14-.53-1.86-1.37-1.86-.57,0-1.42.32-2.16.8v4.34Zm11.9-.21c0,.78.36,1.12.97,1.12.51,0,.99-.32,1.61-1.06l.3.59c-.64,1.14-1.91,1.93-3.07,1.93-1.44,0-2.39-.81-2.39-2.62v-5.08h-1.12v-.56c1.27-.53,2.71-2.07,3.09-3.26h.62v2.65h2.77l-.31,1.17h-2.46v5.12Z" style="fill: #fff;"/>
          <path d="m117.5,66.2h5.48v.83h-.15c-1.69,0-1.95.74-1.95,1.76v5.27c0,4.72-3.43,5.61-5.95,5.61-3.81,0-6.22-1.65-6.22-4.89v-6.31c0-1.06-.29-1.44-1.48-1.44h-.36v-.83h6.63v.83h-.36c-.89,0-1.51.4-1.51,1.44v6.31c0,2.58,1.91,3.47,3.83,3.47,2.78,0,4.15-1.57,4.15-3.9v-5.14c0-1.5-.43-2.18-1.74-2.18h-.38v-.83Zm15.43,11.24c0,1.04.38,1.25,1.21,1.25v.68h-5v-.68c.87-.06,1.21-.66,1.21-2.39v-1.84c0-1.69-.47-2.35-1.31-2.35-.66,0-1.36.32-2.25.93v4.3c0,.95.4,1.35,1.25,1.35h.19v.68h-5.35v-.68h.13c.89,0,1.21-.38,1.21-1.48v-4.13c0-.47-.25-.74-1-.95l-.44-.13v-.51l3.62-1.23h.4v1.88c1.54-1.01,2.9-1.65,3.92-1.65,1.55,0,2.23,1.1,2.23,3.64v3.31Zm7.9,1.93h-5.29v-.68h.23c.87,0,1.18-.38,1.18-1.48v-4.06c0-.55-.13-.7-.72-.91l-.7-.26v-.51l3.62-1.2h.38v7.09c0,.87.35,1.33,1.29,1.33v.68Zm-.99-12.47c0,.85-.81,1.44-1.67,1.44-.98,0-1.69-.62-1.69-1.44,0-.76.8-1.44,1.69-1.44.97,0,1.67.64,1.67,1.44Zm1.23,3.83h5.38v.68h-.74c-.45,0-.63.4-.27,1.18l1.88,4.22,1.65-3.73c.49-1.1.24-1.52-1.25-1.67v-.68h4.21v.68c-1.1.1-1.37.38-1.78,1.27l-3.02,6.84h-1.27l-3.15-6.79c-.4-.87-.7-1.21-1.63-1.31v-.68Zm19.39,6.18c-1.19,1.67-2.9,2.69-4.53,2.69-2.31,0-3.87-1.78-3.87-4.34,0-2.8,1.88-4.77,4.53-4.77,1.12,0,2.01.36,2.66,1.02,1.25,1.25.66,2.43,1.4,2.82v.61h-5.86c.17,1.76,1.35,3.09,2.6,3.09.78,0,1.54-.44,2.58-1.52l.49.41Zm-2.73-2.8c-.02-1.63-.59-2.62-1.5-2.62s-1.65,1.12-1.5,2.62h3.01Zm9.93,5.25h-5.88v-.68h.15c.87,0,1.18-.38,1.18-1.48v-3.45c0-.95-.13-1.16-.76-1.42l-.57-.23v-.53l3.47-1.31h.45v2.37h.05c.78-1.52,1.12-2.14,1.84-2.14.15,0,.32.02.42.06l1.67.62c-.25.89-.59,1.65-1.01,2.24-.66-.25-1.44-.53-1.72-.53-.42,0-.78.29-1.25.95v3.43c0,1.02.32,1.42,1.42,1.42h.55v.68Zm3.35-2.5h.68c.36,1.19,1.29,1.82,2.2,1.82.59,0,1.1-.45,1.1-.97,0-1.46-3.97-1.97-3.97-4.53,0-1.61,1.33-2.69,3.32-2.69.81,0,1.49.13,2.37.45l.04,2.26h-.68c-.38-1.16-1.08-1.8-1.99-1.8-.55,0-.97.34-.97.8,0,1.74,4.17,1.8,4.17,4.7,0,1.56-1.12,2.67-2.75,2.67-1.46,0-1.95-.3-2.25-.3-.13,0-.25.09-.42.28h-.61l-.23-2.69Zm13.29,2.5h-5.29v-.68h.24c.87,0,1.18-.38,1.18-1.48v-4.06c0-.55-.12-.7-.72-.91l-.7-.26v-.51l3.62-1.2h.38v7.09c0,.87.36,1.33,1.29,1.33v.68Zm-1-12.47c0,.85-.8,1.44-1.67,1.44-.97,0-1.69-.62-1.69-1.44,0-.76.8-1.44,1.69-1.44.97,0,1.67.64,1.67,1.44Zm5.78,10.12c0,.78.36,1.12.97,1.12.51,0,.99-.32,1.61-1.06l.3.6c-.63,1.14-1.9,1.92-3.07,1.92-1.44,0-2.39-.81-2.39-2.62v-5.08h-1.12v-.55c1.27-.53,2.71-2.07,3.09-3.26h.62v2.65h2.77l-.32,1.16h-2.45v5.13Zm9,2.13l-.42.93c-1.12,2.45-2.24,1.14-3.21,2.12-.19.19-.32.55-.32.89,0,.7.57,1.21,1.33,1.21s1.4-.51,1.93-1.57l4.74-9.64c.59-1.2.87-1.46,1.82-1.67v-.68h-3.93v.68c1.27.02,1.54.74,1.1,1.65l-1.61,3.26-1.76-3.64c-.4-.85-.23-1.27.87-1.27v-.68h-5.39v.68c.91,0,1.27.4,2.01,1.92l2.86,5.81Z" style="fill: #fff;"/>
        </g>
      </g>
    </g>
  </g>
  <g>
    <path d="m343.13,58.38c-.93-.57-1.64-1.37-2.12-2.4-.48-1.03-.72-2.24-.72-3.64s.28-2.53.85-3.56c.56-1.03,1.34-1.83,2.32-2.4.98-.57,2.09-.85,3.31-.85.92,0,2.03.14,3.33.43l.59.11-.18,3.24h-1.21l-.45-2.29c-.17-.14-.46-.27-.87-.37-.41-.1-.92-.15-1.52-.15-.77,0-1.45.22-2.05.66-.6.44-1.07,1.08-1.41,1.94-.34.85-.51,1.87-.51,3.06s.15,2.15.45,3.08c.3.92.76,1.66,1.37,2.21.61.55,1.37.82,2.27.82.64,0,1.12-.05,1.47-.16.34-.11.63-.26.87-.47l.76-1.76,1.13.14-.43,2.56c-.25.01-.62.1-1.12.25-.43.13-.85.24-1.25.31-.4.08-.9.12-1.5.12-1.32,0-2.45-.29-3.38-.86Z" style="fill: #fff;"/>
    <path d="m353.37,57.81c-.76-.95-1.14-2.21-1.14-3.8,0-1.04.2-1.96.59-2.75s.95-1.4,1.67-1.84c.71-.43,1.53-.65,2.44-.65,1.12,0,1.98.31,2.6.93.62.62.94,1.5.98,2.65,0,.73-.04,1.29-.13,1.67h-6.19c.02,1.19.3,2.15.83,2.87.53.73,1.28,1.09,2.25,1.09.48,0,.98-.09,1.5-.26.52-.17.93-.38,1.22-.62l.34.79c-.35.36-.86.67-1.55.94-.68.26-1.38.4-2.09.4-1.45,0-2.56-.47-3.32-1.42Zm5.16-4.73c.04-.25.05-.51.05-.77-.01-.78-.18-1.4-.5-1.85-.32-.45-.82-.67-1.5-.67s-1.25.25-1.67.76-.65,1.35-.71,2.54h4.32Z" style="fill: #fff;"/>
    <path d="m363.13,50.43l-1.3-.32v-.97l2.57-.32h.05l.38.32v.76l-.02.43c.43-.38,1-.73,1.71-1.04s1.39-.47,2.03-.47c.76,0,1.34.14,1.75.43s.7.73.87,1.32c.17.59.25,1.4.25,2.4v5.04l1.26.13v.9h-4.27v-.88l1.12-.14v-5.06c0-.71-.05-1.26-.14-1.67-.1-.4-.28-.7-.54-.9-.26-.2-.65-.3-1.15-.3-.43,0-.89.11-1.39.32-.49.22-.93.47-1.31.76v6.82l1.22.16v.88h-4.25v-.88l1.13-.16v-7.56Z" style="fill: #fff;"/>
    <path d="m375.55,58.75c-.34-.31-.5-.85-.5-1.6v-6.91h-1.3v-.81c.06-.01.23-.05.5-.13.28-.07.46-.14.56-.2.19-.11.34-.32.45-.65.1-.23.21-.59.34-1.1.13-.5.21-.8.23-.9h1.06l.04,2.59h3.01v1.19h-3.01v5.53c0,.68.02,1.16.06,1.44.04.28.13.46.27.54.14.08.38.13.71.13s.68-.04,1.07-.13.69-.17.91-.27l.27.81c-.29.22-.75.43-1.4.63-.64.2-1.23.31-1.75.31-.68,0-1.19-.16-1.53-.47Z" style="fill: #fff;"/>
    <path d="m381.37,58.15l1.35-.11v-7.61l-1.3-.32v-.97l2.48-.32h.04l.4.32v.32l-.05,1.4h.05c.12-.2.34-.47.65-.79.31-.32.71-.62,1.21-.89s1.03-.4,1.6-.4c.24,0,.44.03.59.09v2.02c-.08-.06-.22-.12-.41-.17-.19-.05-.39-.08-.62-.08-1,0-1.92.31-2.77.92v6.48l2.29.14v.86h-5.51v-.88Z" style="fill: #fff;"/>
    <path d="m390.68,57.81c-.76-.95-1.14-2.21-1.14-3.8,0-1.04.2-1.96.59-2.75s.95-1.4,1.67-1.84c.71-.43,1.53-.65,2.44-.65,1.12,0,1.98.31,2.6.93.62.62.94,1.5.98,2.65,0,.73-.04,1.29-.13,1.67h-6.19c.02,1.19.3,2.15.83,2.87.53.73,1.28,1.09,2.25,1.09.48,0,.98-.09,1.5-.26.52-.17.93-.38,1.22-.62l.34.79c-.35.36-.86.67-1.55.94-.68.26-1.38.4-2.09.4-1.45,0-2.56-.47-3.32-1.42Zm5.16-4.73c.04-.25.05-.51.05-.77-.01-.78-.18-1.4-.5-1.85-.32-.45-.82-.67-1.5-.67s-1.25.25-1.67.76-.65,1.35-.71,2.54h4.32Z" style="fill: #fff;"/>
    <path d="m405.07,50.23h-1.69v-.83l1.69-.34v-.85c0-.74.19-1.43.58-2.05.39-.62.9-1.12,1.53-1.48.63-.37,1.3-.55,2.01-.55.41,0,.76.05,1.06.16v1.8c-.11-.1-.32-.19-.64-.28-.32-.09-.67-.13-1.05-.13-.56,0-.98.15-1.23.44-.26.29-.39.8-.39,1.52v1.42h2.48v1.17h-2.48v7.78l2,.14v.88h-5.4v-.88l1.53-.16v-7.76Z" style="fill: #fff;"/>
    <path d="m411.5,51.2c.44-.79,1.03-1.4,1.75-1.81s1.5-.62,2.33-.62c1.51,0,2.65.48,3.41,1.44.76.96,1.14,2.22,1.14,3.78,0,1.09-.22,2.03-.67,2.83-.44.79-1.03,1.39-1.76,1.8-.73.41-1.5.61-2.33.61-1.51,0-2.65-.48-3.41-1.44-.76-.96-1.14-2.22-1.14-3.78,0-1.08.22-2.02.67-2.81Zm5.9,5.98c.44-.68.67-1.7.67-3.04s-.2-2.39-.61-3.17c-.41-.78-1.06-1.17-1.96-1.17-.83,0-1.47.34-1.92,1.03-.45.68-.68,1.7-.68,3.04s.21,2.39.63,3.17c.42.78,1.07,1.17,1.96,1.17.83,0,1.46-.34,1.91-1.03Z" style="fill: #fff;"/>
    <path d="m421.81,58.15l1.35-.11v-7.61l-1.3-.32v-.97l2.48-.32h.04l.4.32v.32l-.05,1.4h.05c.12-.2.34-.47.65-.79.31-.32.71-.62,1.21-.89s1.03-.4,1.6-.4c.24,0,.44.03.59.09v2.02c-.08-.06-.22-.12-.41-.17-.19-.05-.39-.08-.62-.08-1,0-1.92.31-2.77.92v6.48l2.29.14v.86h-5.51v-.88Z" style="fill: #fff;"/>
    <path d="m304.57,68.38l-1.4-.22v-.9h2.36c.37,0,.91-.02,1.6-.07s1.22-.07,1.57-.07c2.23,0,3.89.56,4.98,1.68s1.63,2.7,1.63,4.73c0,1.42-.28,2.67-.84,3.77-.56,1.1-1.34,1.95-2.35,2.56-1.01.61-2.17.92-3.47.92-.29,0-.78-.02-1.48-.07-.72-.05-1.26-.07-1.62-.07h-2.47v-.88l1.49-.18v-11.2Zm3.53,11.39h.54c.9-.01,1.69-.24,2.38-.68s1.23-1.11,1.61-1.99c.38-.88.58-1.95.58-3.21,0-1.9-.41-3.34-1.23-4.32-.82-.98-2.06-1.48-3.72-1.48-.35,0-.76.02-1.24.07-.2.04-.38.05-.54.05v11.41c.42.1.96.14,1.62.14Z" style="fill: #fff;"/>
    <path d="m318.11,72.03l-1.37-.32v-.95l2.79-.34h.04l.41.32v8.87l1.44.14v.88h-4.77v-.88l1.46-.16v-7.56Zm-.14-3.51c-.19-.22-.29-.49-.29-.83,0-.38.12-.7.35-.95.23-.25.56-.38.96-.38s.71.11.9.32c.19.22.29.49.29.83,0,.41-.12.73-.35.97s-.56.36-.98.36h-.02c-.38,0-.67-.11-.86-.32Z" style="fill: #fff;"/>
    <path d="m323.66,84.76c-.69-.49-1.04-1.15-1.04-2.01,0-.53.17-1.01.5-1.46.33-.44.72-.78,1.18-1.01-.55-.31-.83-.82-.83-1.51,0-.43.13-.84.38-1.22.25-.38.58-.68.99-.88-.6-.26-1.06-.64-1.38-1.13-.32-.49-.48-1.07-.48-1.75s.19-1.3.58-1.82c.39-.52.91-.91,1.55-1.19.64-.28,1.32-.41,2.04-.41,1.21,0,2.16.25,2.84.76.18-.18.46-.35.83-.52s.77-.25,1.19-.25h.61v1.58h-1.98c.29.44.43.96.43,1.55,0,.71-.18,1.33-.53,1.88-.35.55-.85.97-1.48,1.27-.63.3-1.34.45-2.13.45-.52,0-.98-.05-1.39-.16-.17.17-.31.35-.41.56-.11.2-.16.4-.16.59,0,.43.14.73.43.89.29.16.8.24,1.55.24h2.03c1.16,0,2.03.22,2.59.67.56.44.85,1.07.85,1.89,0,.68-.25,1.31-.74,1.88-.49.57-1.16,1.02-1.99,1.35-.83.33-1.74.49-2.71.49-1.54,0-2.65-.24-3.34-.73Zm5.17-.58c.52-.17.94-.43,1.27-.77.32-.34.49-.74.49-1.2,0-.54-.14-.93-.43-1.18-.29-.25-.85-.37-1.67-.37h-2.12c-.48,0-.86-.03-1.13-.09-.49.54-.74,1.15-.74,1.82s.2,1.18.61,1.53c.41.35,1.1.52,2.07.52.59,0,1.14-.09,1.67-.26Zm.35-10.52c0-.8-.18-1.4-.53-1.77-.35-.38-.88-.57-1.59-.57-.66,0-1.18.18-1.57.55-.38.37-.58.95-.58,1.75,0,.76.18,1.36.55,1.8.37.44.92.67,1.66.67,1.37,0,2.05-.81,2.05-2.43Z" style="fill: #fff;"/>
    <path d="m335.03,72.03l-1.37-.32v-.95l2.79-.34h.04l.41.32v8.87l1.44.14v.88h-4.77v-.88l1.46-.16v-7.56Zm-.14-3.51c-.19-.22-.29-.49-.29-.83,0-.38.12-.7.35-.95.23-.25.56-.38.96-.38s.71.11.9.32c.19.22.29.49.29.83,0,.41-.12.73-.35.97s-.56.36-.98.36h-.02c-.38,0-.67-.11-.86-.32Z" style="fill: #fff;"/>
    <path d="m341.16,80.35c-.34-.31-.5-.85-.5-1.6v-6.91h-1.3v-.81c.06-.01.23-.05.5-.13.28-.07.46-.14.56-.2.19-.11.34-.32.45-.65.1-.23.21-.59.34-1.1.13-.5.21-.8.23-.9h1.06l.04,2.59h3.01v1.19h-3.01v5.53c0,.68.02,1.16.06,1.44.04.28.13.46.27.54.14.08.38.13.71.13s.68-.04,1.07-.13.69-.17.91-.27l.27.81c-.29.22-.75.43-1.4.63-.64.2-1.23.31-1.75.31-.68,0-1.19-.16-1.53-.47Z" style="fill: #fff;"/>
    <path d="m348.63,75.44c1.13-.53,2.56-.82,4.28-.85v-.5c0-.56-.06-1.01-.18-1.33-.12-.32-.33-.56-.62-.71-.29-.15-.71-.22-1.25-.22-.61,0-1.16.09-1.65.26-.49.17-.97.39-1.45.64l-.45-.94c.16-.13.44-.31.86-.52.42-.22.91-.41,1.46-.58.55-.17,1.1-.25,1.66-.25.85,0,1.53.12,2.02.35s.85.61,1.07,1.12c.22.52.32,1.21.32,2.07v5.78h1.06v.79c-.24.06-.54.12-.91.18-.37.06-.69.09-.96.09-.34,0-.56-.05-.68-.15-.12-.1-.18-.33-.18-.67v-.59c-.36.36-.8.69-1.32.99s-1.11.45-1.77.45c-.86,0-1.58-.25-2.15-.75-.57-.5-.85-1.22-.85-2.15,0-1.13.56-1.96,1.69-2.49Zm3.17,3.88c.41-.19.78-.42,1.12-.68v-3.1c-1.31,0-2.29.2-2.96.6-.67.4-1,.93-1,1.58s.16,1.12.48,1.43c.32.31.75.46,1.29.46.31,0,.67-.1,1.08-.29Z" style="fill: #fff;"/>
    <path d="m358.35,67.21l-1.46-.2v-.77l2.9-.34h.04l.4.27v13.45l1.53.14v.88h-4.86v-.88l1.46-.16v-12.38Z" style="fill: #fff;"/>
    <path d="m368.85,68.38l-1.42-.22v-.9h4.9v.9l-1.55.22v4.84h6.34v-4.84l-1.46-.22v-.9h4.82v.9l-1.42.22v11.2l1.42.18v.88h-4.84v-.88l1.48-.18v-5.24h-6.34v5.24l1.57.18v.88h-4.95v-.88l1.46-.18v-11.2Z" style="fill: #fff;"/>
    <path d="m389.65,80.6c-.16-.13-.24-.35-.24-.65v-.61c-.4.4-.89.74-1.48,1.04-.59.3-1.19.45-1.79.45-1.12,0-1.91-.3-2.38-.9-.47-.6-.7-1.59-.7-2.97v-5.22l-1.01-.29v-.79l2.52-.23h.02l.34.22v6.17c0,.7.05,1.24.15,1.63.1.39.28.68.54.86.26.19.63.28,1.12.28s.93-.1,1.35-.31c.42-.2.79-.44,1.1-.72v-6.82l-1.3-.29v-.79l2.74-.23h.02l.41.22v9.07h1.08l-.02.81c-.34.08-.63.15-.87.2-.25.05-.53.07-.85.07s-.58-.07-.75-.2Z" style="fill: #fff;"/>
    <path d="m393.56,79.75l1.1-.16v-7.56l-1.3-.32v-.97l2.57-.32.32.23.11.72-.02.58c.42-.38.99-.73,1.72-1.05.73-.32,1.38-.48,1.95-.48.65,0,1.17.11,1.57.32.4.22.7.55.9,1.01.38-.32.92-.63,1.61-.91.69-.28,1.33-.42,1.94-.42.74,0,1.33.14,1.75.42.42.28.72.72.89,1.31.17.59.26,1.39.26,2.38v5.06l1.3.16v.88h-4.28v-.88l1.12-.16v-5c0-.7-.05-1.25-.15-1.67-.1-.41-.29-.72-.58-.93-.28-.2-.69-.31-1.21-.31-.4,0-.82.09-1.26.26-.44.17-.82.38-1.13.62.11.47.16,1.13.16,2v5.02l1.28.16v.88h-4.36v-.88l1.19-.16v-5.04c0-.72-.04-1.28-.14-1.67-.09-.4-.26-.69-.51-.89-.25-.2-.64-.3-1.15-.3-.43,0-.89.11-1.38.32-.49.22-.91.47-1.27.76v6.82l1.21.16v.88h-4.19v-.88Z" style="fill: #fff;"/>
    <path d="m413.18,75.44c1.13-.53,2.56-.82,4.28-.85v-.5c0-.56-.06-1.01-.18-1.33-.12-.32-.33-.56-.62-.71-.29-.15-.71-.22-1.25-.22-.61,0-1.16.09-1.65.26-.49.17-.97.39-1.45.64l-.45-.94c.16-.13.44-.31.86-.52.42-.22.91-.41,1.46-.58.55-.17,1.1-.25,1.66-.25.85,0,1.53.12,2.02.35s.85.61,1.07,1.12c.22.52.32,1.21.32,2.07v5.78h1.06v.79c-.24.06-.54.12-.91.18-.37.06-.69.09-.96.09-.34,0-.56-.05-.68-.15-.12-.1-.18-.33-.18-.67v-.59c-.36.36-.8.69-1.32.99s-1.11.45-1.77.45c-.86,0-1.58-.25-2.15-.75-.57-.5-.85-1.22-.85-2.15,0-1.13.56-1.96,1.69-2.49Zm3.17,3.88c.41-.19.78-.42,1.12-.68v-3.1c-1.31,0-2.29.2-2.96.6-.67.4-1,.93-1,1.58s.16,1.12.48,1.43c.32.31.75.46,1.29.46.31,0,.67-.1,1.08-.29Z" style="fill: #fff;"/>
    <path d="m422.67,72.03l-1.3-.32v-.97l2.57-.32h.05l.38.32v.76l-.02.43c.43-.38,1-.73,1.71-1.04s1.39-.47,2.03-.47c.76,0,1.34.14,1.75.43s.7.73.87,1.32c.17.59.25,1.4.25,2.4v5.04l1.26.13v.9h-4.27v-.88l1.12-.14v-5.06c0-.71-.05-1.26-.14-1.67-.1-.4-.28-.7-.54-.9-.26-.2-.65-.3-1.15-.3-.43,0-.89.11-1.39.32-.49.22-.93.47-1.31.76v6.82l1.22.16v.88h-4.25v-.88l1.13-.16v-7.56Z" style="fill: #fff;"/>
    <path d="m434.94,72.03l-1.37-.32v-.95l2.79-.34h.04l.41.32v8.87l1.44.14v.88h-4.77v-.88l1.46-.16v-7.56Zm-.14-3.51c-.19-.22-.29-.49-.29-.83,0-.38.12-.7.35-.95.23-.25.56-.38.96-.38s.71.11.9.32c.19.22.29.49.29.83,0,.41-.12.73-.35.97s-.56.36-.98.36h-.02c-.38,0-.67-.11-.86-.32Z" style="fill: #fff;"/>
    <path d="m441.08,80.35c-.34-.31-.5-.85-.5-1.6v-6.91h-1.3v-.81c.06-.01.23-.05.5-.13.28-.07.46-.14.56-.2.19-.11.34-.32.45-.65.1-.23.21-.59.34-1.1.13-.5.21-.8.23-.9h1.06l.04,2.59h3.01v1.19h-3.01v5.53c0,.68.02,1.16.06,1.44.04.28.13.46.27.54.14.08.38.13.71.13s.68-.04,1.07-.13.69-.17.91-.27l.27.81c-.29.22-.75.43-1.4.63-.64.2-1.23.31-1.75.31-.68,0-1.19-.16-1.53-.47Z" style="fill: #fff;"/>
    <path d="m448.26,72.03l-1.37-.32v-.95l2.79-.34h.04l.41.32v8.87l1.44.14v.88h-4.77v-.88l1.46-.16v-7.56Zm-.14-3.51c-.19-.22-.29-.49-.29-.83,0-.38.12-.7.35-.95.23-.25.56-.38.96-.38s.71.11.9.32c.19.22.29.49.29.83,0,.41-.12.73-.35.97s-.56.36-.98.36h-.02c-.38,0-.67-.11-.86-.32Z" style="fill: #fff;"/>
    <path d="m453.96,79.41c-.76-.95-1.14-2.21-1.14-3.8,0-1.04.2-1.96.59-2.75s.95-1.4,1.67-1.84c.71-.43,1.53-.65,2.44-.65,1.12,0,1.98.31,2.6.93.62.62.94,1.5.98,2.65,0,.73-.04,1.29-.13,1.67h-6.19c.02,1.19.3,2.15.83,2.87.53.73,1.28,1.09,2.25,1.09.48,0,.98-.09,1.5-.26.52-.17.93-.38,1.22-.62l.34.79c-.35.36-.86.67-1.55.94-.68.26-1.38.4-2.09.4-1.45,0-2.56-.47-3.32-1.42Zm5.16-4.73c.04-.25.05-.51.05-.77-.01-.78-.18-1.4-.5-1.85-.32-.45-.82-.67-1.5-.67s-1.25.25-1.67.76-.65,1.35-.71,2.54h4.32Z" style="fill: #fff;"/>
    <path d="m464.32,79.19c.12.18.38.34.77.49.39.14.8.22,1.23.22.68,0,1.19-.13,1.51-.4.32-.26.49-.63.49-1.1,0-.32-.1-.61-.31-.85-.2-.24-.49-.45-.85-.64s-.89-.41-1.57-.68c-.92-.35-1.6-.77-2.02-1.25-.43-.49-.64-1.12-.64-1.92,0-.53.16-.99.48-1.39.32-.4.76-.71,1.31-.93.56-.22,1.18-.33,1.86-.33.55,0,1.04.04,1.45.13.41.08.75.17,1,.25.25.08.42.14.5.16v2.23h-1.1l-.36-1.33c-.07-.14-.26-.27-.58-.37s-.66-.15-1.04-.15c-.54,0-.98.12-1.3.36-.33.24-.5.56-.5.97,0,.36.09.66.26.89s.39.42.66.57c.26.14.62.31,1.08.5l.36.14c.67.26,1.22.52,1.64.76.42.24.77.56,1.05.95.28.39.42.87.42,1.43,0,.89-.34,1.6-1.03,2.12-.69.53-1.64.79-2.83.79-.59,0-1.2-.08-1.85-.24s-1.17-.33-1.57-.5v-2.3h1.17l.32,1.4Z" style="fill: #fff;"/>
  </g>
</svg>
